# Rhino

g object_1
v -19.9208812713623 31.18398857116699 0
v -19.9208812713623 31.18398857116699 -15.62026691436768
v -19.9208812713623 41.83063507080078 0
v -19.9208812713623 41.83063507080078 -15.62026691436768
v -19.9208812713623 41.83063507080078 0
v -19.9208812713623 41.83063507080078 -15.62026691436768
v -6.179278373718262 41.83063507080078 0
v -6.179278373718262 41.83063507080078 -15.62026691436768
v -6.179278373718262 41.83063507080078 0
v -6.179278373718262 41.83063507080078 -15.62026691436768
v -6.179278373718262 31.18398857116699 0
v -6.179278373718262 31.18398857116699 -15.62026691436768
v -6.179278373718262 31.18398857116699 0
v -6.179278373718262 31.18398857116699 -15.62026691436768
v -19.9208812713623 31.18398857116699 0
v -19.9208812713623 31.18398857116699 -15.62026691436768
v -19.9208812713623 31.18398857116699 0
v -19.9208812713623 41.83063507080078 0
v -6.179278373718262 41.83063507080078 0
v -6.179278373718262 31.18398857116699 0
v -19.9208812713623 31.18398857116699 -15.62026691436768
v -19.9208812713623 41.83063507080078 -15.62026691436768
v -6.179278373718262 41.83063507080078 -15.62026691436768
v -6.179278373718262 31.18398857116699 -15.62026691436768
vt 0 0
vt 0 0.7115784883499146
vt 0.2182741165161133 0
vt 0.2182741165161133 0.7115784883499146
vt 0.2182741165161133 0
vt 0.2182741165161133 0.7115784883499146
vt 0.5 0
vt 0.5 0.7115784883499146
vt 0.5 0
vt 0.5 0.7115784883499146
vt 0.7182741165161133 0
vt 0.7182741165161133 0.7115784883499146
vt 0.7182741165161133 0
vt 0.7182741165161133 0.7115784883499146
vt 1 0
vt 1 0.7115784883499146
vt 0.2817258834838867 1
vt 0.2817258834838867 0.7115792036056519
vt 0 0.7115792036056519
vt 0 1
vt 1 0.7115792036056519
vt 1 1
vt 0.7182741165161133 1
vt 0.7182741165161133 0.7115792036056519
vn -1 0 0
vn -1 0 0
vn -1 0 0
vn -1 0 0
vn 0 1 0
vn 0 1 0
vn 0 1 0
vn 0 1 0
vn 1 0 0
vn 1 0 0
vn 1 0 0
vn 1 0 0
vn 0 -1 0
vn 0 -1 0
vn 0 -1 0
vn 0 -1 0
vn 0 0 1
vn 0 0 1
vn 0 0 1
vn 0 0 1
vn 0 0 -1
vn 0 0 -1
vn 0 0 -1
vn 0 0 -1
f 1/1/1 3/3/3 4/4/4 2/2/2
f 5/5/5 7/7/7 8/8/8 6/6/6
f 9/9/9 11/11/11 12/12/12 10/10/10
f 13/13/13 15/15/15 16/16/16 14/14/14
f 18/18/18 17/17/17 20/20/20
f 20/20/20 19/19/19 18/18/18
f 22/22/22 24/24/24 21/21/21
f 24/24/24 22/22/22 23/23/23
