# Rhino

g mesh2_002_mesh2_geometry
v 35.644905 4.219306 13.797381
v 30.849451 3.33513 14.154451
v 30.938114 0.466119 14.119235
v 30.938114 0.466119 14.119235
v 33.641563 5.379838 7.74774
v 38.582417 4.174241 6.105197
v 32.090347 6.887986 3.128864
v 37.648487 5.310963 1.280646
v 37.786777 0.836031 1.225739
v 37.786777 0.836031 1.225739
v 37.786777 0.836031 1.225739
v 35.900349 3.587236 -2.835028
v 34.358379 7.179622 -2.315924
v 32.656975 7.654055 -7.006633
v 31.482405 12.402974 -6.827024
v 31.482405 12.402974 -6.827024
v 29.119473 12.399153 -11.862528
v 29.119473 12.399153 -11.862528
v 29.119473 12.399153 -11.862528
v 29.119473 12.399153 -11.862528
v 25.687037 11.902954 -11.02619
v 25.687037 11.902954 -11.02619
v 25.687037 11.902954 -11.02619
v 25.687037 11.902954 -11.02619
v 23.989033 11.897144 -14.593759
v 23.989033 11.897144 -14.593759
v 23.989033 11.897144 -14.593759
v 23.989033 11.897144 -14.593759
v 23.989033 11.897144 -14.593759
v 23.989033 11.897144 -14.593759
v 26.881168 12.270669 -14.558105
v 26.881168 12.270669 -14.558105
v 29.543446 7.623479 -12.35407
v 33.377335 2.954099 -7.666845
v 33.377335 2.954099 -7.666845
v 33.377335 2.954099 -7.666845
v 33.377335 2.954099 -7.666845
v 33.377335 2.954099 -7.666845
v 33.377335 2.954099 -7.666845
v 35.985512 0.830693 -2.868852
v 35.985512 0.830693 -2.868852
v 35.985512 0.830693 -2.868852
v 32.283295 0.6435380000000001 3.052226
v 32.283295 0.6435380000000001 3.052226
v 32.283295 0.6435380000000001 3.052226
v 32.283295 0.6435380000000001 3.052226
v 32.283295 0.6435380000000001 3.052226
v 32.283295 0.6435380000000001 3.052226
v 38.686562 0.804447 6.063834
v 38.686562 0.804447 6.063834
v 38.686562 0.804447 6.063834
v 38.686562 0.804447 6.063834
v 28.148563 0.435865 9.561161
v 28.148563 0.435865 9.561161
v 28.148563 0.435865 9.561161
v 28.148563 0.435865 9.561161
v 26.141665 0.428725 5.090501
v 26.141665 0.428725 5.090501
v 26.141665 0.428725 5.090501
v 26.00341 4.903602 5.145436
v 28.044182 3.813617 9.602624
v 35.756149 0.619502 13.753192
v 35.756149 0.619502 13.753192
v 39.210423 3.629709 11.205149
v 39.299088 0.760698 11.16993
v 39.299088 0.760698 11.16993
v 30.600399 8.350374 -0.400168
v 28.056583 11.843219 -4.920524
v 23.762556 11.286984 -4.94603
v 22.100754 11.384519 -10.152368
v 22.100754 11.384519 -10.152368
v 22.100754 11.384519 -10.152368
v 22.103041 11.593475 -13.618792
v 22.103041 11.593475 -13.618792
v 23.408049 7.467344 -15.083333
v 23.408049 7.467344 -15.083333
v 26.632156 7.56944 -15.281748
v 30.192455 3.362859 -12.578096
v 30.272448 0.773716 -12.609867
v 30.272448 0.773716 -12.609867
v 30.272448 0.773716 -12.609867
v 26.914593 0.710042 -15.876889
v 26.914593 0.710042 -15.876889
v 25.714935 0.614268 -11.097299
v 25.714935 0.614268 -11.097299
v 25.714935 0.614268 -11.097299
v 25.714935 0.614268 -11.097299
v 28.560335 0.640516 -6.07248
v 28.560335 0.640516 -6.07248
v 28.560335 0.640516 -6.07248
v 28.560335 0.640516 -6.07248
v 28.560335 0.640516 -6.07248
v 20.953169 0.447672 -9.516940999999999
v 20.953169 0.447672 -9.516940999999999
v 20.953169 0.447672 -9.516940999999999
v 20.953169 0.447672 -9.516940999999999
v 23.193316 0.452745 -4.291248
v 23.193316 0.452745 -4.291248
v 23.193316 0.452745 -4.291248
v 23.193316 0.452745 -4.291248
v 28.494141 2.783255 -6.046187
v 28.494141 2.783255 -6.046187
v 28.494141 2.783255 -6.046187
v 23.127115 2.595484 -4.264955
v 23.127115 2.595484 -4.264955
v 23.127115 2.595484 -4.264955
v 23.127115 2.595484 -4.264955
v 23.127115 2.595484 -4.264955
v 30.718245 0.646411 -1.120726
v 30.718245 0.646411 -1.120726
v 24.836227 0.440623 0.831423
v 24.836227 0.440623 0.831423
v 24.836227 0.440623 0.831423
v 24.751066 3.197166 0.86525
v 25.611649 6.873608 0.586982
v 23.742319 7.342165 -4.047997
v 21.438437 7.339915 -9.664141000000001
v 20.873177 3.036813 -9.485170999999999
v 20.682966 3.088218 -14.150083
v 20.762957 0.499076 -14.181853
v 20.762957 0.499076 -14.181853
v 23.373932 0.598346 -15.693467
v 23.373932 0.598346 -15.693467
v 23.373932 0.598346 -15.693467
v 23.373932 0.598346 -15.693467
v 23.29394 3.187487 -15.661697
v 23.29394 3.187487 -15.661697
v 26.8346 3.299184 -15.845119
v 21.198496 7.382856 -13.764971
v 33.443535 0.81136 -7.693138
v 33.443535 0.81136 -7.693138
v 33.443535 0.81136 -7.693138
vt 0.7767620086669922 0.1358470022678375
vt 0.7820789813995361 0.1620829999446869
vt 0.7695180177688599 0.1723559945821762
vt 0.7578200101852417 0.02030299976468086
vt 0.8159689903259277 0.1334819942712784
vt 0.8096020221710205 0.1002880036830902
vt 0.8480269908905029 0.1318089962005615
vt 0.8400760293006897 0.09449099749326706
vt 0.8292099833488464 0.06841599941253662
vt 0.6993809938430786 0.08375000208616257
vt 0.6993809938430786 0.08375000208616257
vt 0.8628259897232056 0.07652299851179123
vt 0.8730180263519287 0.1010100021958351
vt 0.9033870100975037 0.08792400360107422
vt 0.919497013092041 0.1098589971661568
vt 0.919497013092041 0.1098589971661568
vt 0.9516689777374268 0.09596399962902069
vt 0.9549760222434998 0.1142209991812706
vt 0.9549760222434998 0.1142209991812706
vt 0.9549760222434998 0.1142209991812706
vt 0.9557750225067139 0.1370619982481003
vt 0.9557750225067139 0.1370619982481003
vt 0.9557750225067139 0.1370619982481003
vt 0.9557750225067139 0.1370619982481003
vt 0.9804779887199402 0.1417209953069687
vt 0.9804779887199402 0.1417209953069687
vt 0.9804779887199402 0.1417209953069687
vt 0.9804779887199402 0.1417209953069687
vt 0.9875990152359009 0.1835049986839294
vt 0.9902660250663757 0.0815650001168251
vt 0.9754949808120728 0.1236810013651848
vt 0.9723610281944275 0.08720199763774872
vt 0.9395049810409546 0.07118400186300278
vt 0.892753005027771 0.05973599851131439
vt 0.6387519836425781 0.07706499844789505
vt 0.6387519836425781 0.07706499844789505
vt 0.6387519836425781 0.07706499844789505
vt 0.6387519836425781 0.07706499844789505
vt 0.892753005027771 0.05973599851131439
vt 0.8564760088920593 0.05958899855613708
vt 0.6730390191078186 0.0817359983921051
vt 0.6730390191078186 0.0817359983921051
vt 0.6987850069999695 0.04948899894952774
vt 0.6987850069999695 0.04948899894952774
vt 0.6987850069999695 0.04948899894952774
vt 0.6987850069999695 0.04948899894952774
vt 0.6987850069999695 0.04948899894952774
vt 0.6987850069999695 0.04948899894952774
vt 0.7281020283699036 0.07928399741649628
vt 0.7281020283699036 0.07928299903869629
vt 0.7281020283699036 0.07928399741649628
vt 0.7986469864845276 0.08158800005912781
vt 0.7269610166549683 0.01368100009858608
vt 0.7269610166549683 0.01368100009858608
vt 0.7269600033760071 0.01368100009858608
vt 0.8037840127944946 0.1911740005016327
vt 0.6981199979782104 0.01125499978661537
vt 0.834758996963501 0.2013050019741058
vt 0.6981199979782104 0.01125499978661537
vt 0.844219982624054 0.1742839962244034
vt 0.8131060004234314 0.171753004193306
vt 0.7652119994163513 0.04788099974393845
vt 0.7562289834022522 0.136245995759964
vt 0.7804880142211914 0.1120579987764359
vt 0.7577540278434753 0.07269400358200073
vt 0.7671660184860229 0.1024399995803833
vt 0.8743529915809631 0.131743997335434
vt 0.9141430258750916 0.1331200003623962
vt 0.9217560291290283 0.1583369970321655
vt 0.956233024597168 0.1609420031309128
vt 0.9534279704093933 0.1720390021800995
vt 0.956233024597168 0.1609420031309128
vt 0.9775859713554382 0.1551519930362701
vt 0.9740949869155884 0.1804739981889725
vt 0.9821289777755737 0.2109660059213638
vt 0.9832519888877869 0.05450399965047836
vt 0.9636800289154053 0.06084100157022476
vt 0.9274309873580933 0.04669399932026863
vt 0.9208329916000366 0.03159499913454056
vt 0.5924839973449707 0.06925299763679504
vt 0.9208329916000366 0.03159499913454056
vt 0.9486629962921143 0.01987499929964542
vt 0.567704975605011 0.05693399906158447
vt 0.5919899940490723 0.04088100045919418
vt 0.5919889807701111 0.04088100045919418
vt 0.5919899940490723 0.04088100045919418
vt 0.5919889807701111 0.04088100045919418
vt 0.6255589723587036 0.04689599946141243
vt 0.6255599856376648 0.04689599946141243
vt 0.6255589723587036 0.04689599946141243
vt 0.6255599856376648 0.04689599946141243
vt 0.6255599856376648 0.04689599946141243
vt 0.5914729833602905 0.01123700011521578
vt 0.5914729833602905 0.01123700011521578
vt 0.9239389896392822 0.2372760027647018
vt 0.9239389896392822 0.2372760027647018
vt 0.6249759793281555 0.01348400022834539
vt 0.6249759793281555 0.01348400022834539
vt 0.6249759793281555 0.01348400022834539
vt 0.8910660147666931 0.2214750051498413
vt 0.6382210254669189 0.04666600003838539
vt 0.6382210254669189 0.04666600003838539
vt 0.6382210254669189 0.04666600003838539
vt 0.6376370191574097 0.01325399987399578
vt 0.6376370191574097 0.01325399987399578
vt 0.6376370191574097 0.01325399987399578
vt 0.8970530033111572 0.2090719938278198
vt 0.8970530033111572 0.2090719938278198
vt 0.6724680066108704 0.04894499853253365
vt 0.6724680066108704 0.04894499853253365
vt 0.6718299984931946 0.01232799980789423
vt 0.8614550232887268 0.2092459946870804
vt 0.6718299984931946 0.01232799980789423
vt 0.8674719929695129 0.1923079937696457
vt 0.8759379982948303 0.1681810021400452
vt 0.9065750241279602 0.1807159930467606
vt 0.9419230222702026 0.197272002696991
vt 0.9304940104484558 0.2221989929676056
vt 0.957597017288208 0.233245000243187
vt 0.565106987953186 0.01931699924170971
vt 0.9521409869194031 0.2485789954662323
vt 0.5617960095405579 0.03683499991893768
vt 0.5617960095405579 0.03683499991893768
vt 0.9708979725837708 0.254271000623703
vt 0.97011798620224 0.01212400011718273
vt 0.9758750200271606 0.2382069975137711
vt 0.9758309721946716 0.0277709998190403
vt 0.9546449780464172 0.03511099889874458
vt 0.9661419987678528 0.2072390019893646
vt 0.6260910034179688 0.07729600369930267
vt 0.6260910034179688 0.07729600369930267
vt 0.8869249820709229 0.04732700064778328
vn 0.2396675646305084 0.6480450034141541 0.7229087948799133
vn -0.3834167420864105 0.6351721882820129 0.6704833507537842
vn -0.4279159009456635 -0.3050133287906647 0.8507965803146362
vn 0.03088598884642124 -0.9994476437568665 -0.01226799562573433
vn 0.01342836022377014 0.9735661745071411 0.2280101180076599
vn 0.7890132069587708 0.6142911314964294 -0.01022423524409533
vn 0.07989980280399323 0.9527904391288757 0.2929272949695587
vn 0.7469577789306641 0.6558276414871216 -0.1092896014451981
vn 0.8669968247413635 -0.4197649657726288 -0.2685403227806091
vn 0.03088098764419556 -0.9994475841522217 -0.01228199526667595
vn 0.03088598884642124 -0.9994475841522217 -0.01226899493485689
vn 0.884479820728302 0.1887618750333786 -0.426690012216568
vn 0.7190535664558411 0.6946383118629456 0.0209661927074194
vn 0.8789171576499939 0.2368888258934021 -0.4139906764030457
vn 0.4937086403369904 0.8694908022880554 0.01541233249008656
vn -0.1285839676856995 0.9899068474769592 0.05958699062466621
vn 0.4929775595664978 0.80897456407547 -0.3202081322669983
vn -0.1285839676856995 0.9899068474769592 0.05958699062466621
vn -0.1285839676856995 0.9899067878723145 0.0595879852771759
vn -0.1285829842090607 0.9899069666862488 0.05958699807524681
vn -0.1285839676856995 0.9899068474769592 0.05958699062466621
vn -0.1285839676856995 0.9899067878723145 0.0595879852771759
vn -0.128575399518013 0.9899088144302368 0.05957264825701714
vn -0.1285829842090607 0.989906907081604 0.0595879927277565
vn -0.1285839676856995 0.9899067878723145 0.0595879852771759
vn -0.1285829842090607 0.9899069666862488 0.05958699807524681
vn -0.1285829842090607 0.989906907081604 0.0595879927277565
vn -0.2033208757638931 0.8417284488677979 -0.5001538395881653
vn -0.2033208757638931 0.8417284488677979 -0.5001538395881653
vn -0.2033208757638931 0.8417284488677979 -0.5001538395881653
vn -0.1285829842090607 0.9899069666862488 0.05958699807524681
vn 0.4500383734703064 0.4555925130844116 -0.7680500745773315
vn 0.7894998788833618 0.1391059756278992 -0.5977787375450134
vn 0.9280878901481628 -0.2018843293190002 -0.3128826916217804
vn 0.9280878901481628 -0.2018843293190002 -0.3128826916217804
vn 0.3150500357151031 -0.001913000247441232 0.9490731358528137
vn -0.0879400372505188 -0.9277203679084778 -0.3627691566944122
vn 0.3150500357151031 -0.001912000239826739 0.9490731358528137
vn 0.8398138880729675 0.03259599581360817 -0.5418949127197266
vn 0.4935586154460907 -0.7963410019874573 -0.349629670381546
vn 0.4935586154460907 -0.7963410019874573 -0.349629670381546
vn 0.03088098764419556 -0.9994475841522217 -0.01228199526667595
vn 0.03088098764419556 -0.9994475841522217 -0.01228199526667595
vn 0.03088598884642124 -0.9994475841522217 -0.01226899493485689
vn 0.0308849886059761 -0.9994476437568665 -0.01226799562573433
vn 0.03088598884642124 -0.9994476437568665 -0.01226799562573433
vn 0.0308858547359705 -0.9994476437568665 -0.01226833928376436
vn 0.03088898956775665 -0.9994476437568665 -0.01225999556481838
vn 0.03088598884642124 -0.9994475841522217 -0.01226899493485689
vn 0.0308849886059761 -0.9994476437568665 -0.01226799562573433
vn 0.03088598884642124 -0.9994476437568665 -0.01226799562573433
vn 0.4692924618721008 -0.8795607089996338 -0.07834257930517197
vn 0.0308849886059761 -0.9994476437568665 -0.01226799562573433
vn 0.03088598884642124 -0.9994476437568665 -0.01226799562573433
vn 0.03088598884642124 -0.9994476437568665 -0.01226799562573433
vn -0.5107985138893127 -0.8199268579483032 0.2584663033485413
vn 0.03088598884642124 -0.9994476437568665 -0.01226799562573433
vn -0.6389896869659424 -0.7308840751647949 0.2397928833961487
vn 0.03088898956775665 -0.9994476437568665 -0.01225999556481838
vn -0.7987534999847412 0.4313916563987732 0.4193972945213318
vn -0.6605864763259888 0.5681745409965515 0.4907170236110687
vn 0.03088598884642124 -0.9994476437568665 -0.01226799562573433
vn 0.322770744562149 -0.7171689867973328 0.6176468729972839
vn 0.7860890030860901 0.3364462852478027 0.5185248255729675
vn 0.03088598884642124 -0.9994476437568665 -0.01226799562573433
vn 0.9234817624092102 -0.3286307454109192 0.1979476660490036
vn 0.1251911818981171 0.9111605286598206 0.3925731480121613
vn 0.04281831905245781 0.8986456990242004 0.43658047914505
vn -0.6562501788139343 0.6513051390647888 0.3809689283370972
vn -0.6757587194442749 0.7283130884170532 0.1136229783296585
vn -0.6757587194442749 0.7283130884170532 0.1136229783296585
vn -0.1285829842090607 0.989906907081604 0.0595879927277565
vn -0.6852229237556458 0.490477979183197 -0.5384244322776794
vn -0.6852229237556458 0.490477979183197 -0.5384244322776794
vn -0.2879467606544495 0.1380372941493988 -0.9476457238197327
vn -0.2879467606544495 0.1380372941493988 -0.9476457238197327
vn 0.3564950525760651 0.1344070285558701 -0.924578845500946
vn 0.7486006021499634 0.08700935542583466 -0.6572872400283813
vn 0.5836199522018433 -0.6861345767974854 -0.4342891573905945
vn 0.03089301101863384 -0.9994473457336426 -0.01227300427854061
vn 0.8398138880729675 0.03259599581360817 -0.5418949127197266
vn 0.4098730683326721 -0.5630784630775452 -0.7175978422164917
vn 0.03089301101863384 -0.9994473457336426 -0.01227300427854061
vn 0.03089301101863384 -0.9994473457336426 -0.01227300427854061
vn 0.03089301101863384 -0.9994473457336426 -0.01227300427854061
vn 0.03089400939643383 -0.9994472861289978 -0.01227300334721804
vn 0.03089400939643383 -0.9994472861289978 -0.01227300334721804
vn 0.03089301101863384 -0.9994473457336426 -0.01227300427854061
vn 0.03089301101863384 -0.9994473457336426 -0.01227300427854061
vn 0.03089400939643383 -0.9994472861289978 -0.01227300334721804
vn 0.3150500357151031 -0.001913000247441232 0.9490731358528137
vn 0.3150500357151031 -0.001912000239826739 0.9490731358528137
vn 0.03089301101863384 -0.9994473457336426 -0.01227300427854061
vn 0.03089400939643383 -0.9994472861289978 -0.01227300334721804
vn -0.6513501405715942 -0.7351572513580322 0.1878479570150375
vn -0.9185903072357178 -0.03321200981736183 0.3938131332397461
vn 0.03089301101863384 -0.9994473457336426 -0.01227300427854061
vn 0.3150500357151031 -0.001913000247441232 0.9490731358528137
vn 0.3150491416454315 -0.001912000821903348 0.9490734338760376
vn -0.9185903072357178 -0.03321200981736183 0.3938131332397461
vn 0.3150500357151031 -0.001913000247441232 0.9490731358528137
vn 0.3150491416454315 -0.001912000821903348 0.9490734338760376
vn -0.0879400372505188 -0.9277203679084778 -0.3627691566944122
vn 0.3150491416454315 -0.001912000821903348 0.9490734338760376
vn -0.0879400372505188 -0.9277203679084778 -0.3627691566944122
vn -0.8874902725219727 -0.2486984431743622 0.3879563510417938
vn -0.8874902725219727 -0.2486984431743622 0.3879563510417938
vn -0.9185903072357178 -0.03321200981736183 0.3938131332397461
vn -0.0879400372505188 -0.9277203679084778 -0.3627691566944122
vn -0.0491049662232399 -0.967028021812439 -0.249890923500061
vn -0.6856195330619812 -0.7180925011634827 0.1194527521729469
vn -0.6856195330619812 -0.7180925011634827 0.1194527521729469
vn 0.03088898956775665 -0.9994476437568665 -0.01225999556481838
vn -0.9586113691329956 0.1034907400608063 0.2652430236339569
vn -0.6966636776924133 0.5227953195571899 0.4912684857845306
vn -0.9177152514457703 0.1038876324892044 0.383413702249527
vn -0.9686293005943298 0.140114814043045 0.2052440643310547
vn -0.9744331836700439 0.04614438861608505 0.2198878526687622
vn -0.9265636801719666 0.08050988614559174 -0.3674206137657166
vn 0.03089400939643383 -0.9994472861289978 -0.01227300334721804
vn -0.7407833933830261 -0.5223602652549744 -0.4223502278327942
vn 0.03089301101863384 -0.9994473457336426 -0.01227300427854061
vn 0.03089400939643383 -0.9994472861289978 -0.01227300334721804
vn -0.1532656848430634 -0.5593491196632385 -0.8146399259567261
vn -0.1532656848430634 -0.5593491196632385 -0.8146399259567261
vn -0.3633927702903748 0.06872965395450592 -0.9290973544120789
vn -0.3633927702903748 0.06872965395450592 -0.9290973544120789
vn 0.2096076756715775 0.07950353622436523 -0.9745479822158813
vn -0.8662195801734924 0.173378512263298 -0.468618780374527
vn 0.03089301101863384 -0.9994473457336426 -0.01227300427854061
vn 0.3150500357151031 -0.001912000239826739 0.9490731358528137
vn 0.8398138880729675 0.03259599581360817 -0.5418949127197266
f 1/1/1 2/2/2 3/3/3
f 1/1/1 5/5/5 2/2/2
f 5/5/5 1/1/1 6/6/6
f 6/6/6 7/7/7 5/5/5
f 6/6/6 8/8/8 7/7/7
f 9/9/9 8/8/8 6/6/6
f 12/12/12 8/8/8 9/9/9
f 12/12/12 13/13/13 8/8/8
f 14/14/14 13/13/13 12/12/12
f 14/14/14 15/15/15 13/13/13
f 17/17/17 15/15/15 14/14/14
f 16/16/16 18/18/18 21/21/21
f 19/19/19 25/25/25 22/22/22
f 20/20/20 31/31/31 26/26/26
f 32/32/32 17/17/17 33/33/33
f 33/33/33 17/17/17 14/14/14
f 33/33/33 14/14/14 34/34/34
f 34/34/34 14/14/14 12/12/12
f 34/34/34 12/12/12 40/40/40
f 40/40/40 12/12/12 9/9/9
f 10/10/10 43/43/43 42/42/42
f 49/49/49 44/44/44 11/11/11
f 53/53/53 45/45/45 50/50/50
f 46/46/46 54/54/54 57/57/57
f 58/58/58 56/56/56 60/60/60
f 60/60/60 56/56/56 61/61/61
f 56/56/56 3/3/3 61/61/61
f 62/62/62 4/4/4 55/55/55
f 1/1/1 3/3/3 63/63/63
f 1/1/1 63/63/63 64/64/64
f 64/64/64 63/63/63 66/66/66
f 65/65/65 62/62/62 51/51/51
f 51/51/51 62/62/62 55/55/55
f 52/52/52 6/6/6 66/66/66
f 9/9/9 6/6/6 52/52/52
f 6/6/6 64/64/64 66/66/66
f 6/6/6 1/1/1 64/64/64
f 61/61/61 3/3/3 2/2/2
f 5/5/5 61/61/61 2/2/2
f 5/5/5 7/7/7 61/61/61
f 7/7/7 60/60/60 61/61/61
f 7/7/7 67/67/67 60/60/60
f 8/8/8 67/67/67 7/7/7
f 8/8/8 13/13/13 67/67/67
f 13/13/13 68/68/68 67/67/67
f 13/13/13 15/15/15 68/68/68
f 15/15/15 23/23/23 68/68/68
f 68/68/68 23/23/23 69/69/69
f 23/23/23 70/70/70 69/69/69
f 24/24/24 27/27/27 72/72/72
f 28/28/28 73/73/73 70/70/70
f 29/29/29 75/75/75 74/74/74
f 30/30/30 77/77/77 76/76/76
f 32/32/32 77/77/77 30/30/30
f 77/77/77 32/32/32 33/33/33
f 77/77/77 33/33/33 78/78/78
f 78/78/78 33/33/33 34/34/34
f 79/79/79 78/78/78 34/34/34
f 78/78/78 79/79/79 82/82/82
f 80/80/80 84/84/84 83/83/83
f 88/88/88 85/85/85 80/80/80
f 87/87/87 90/90/90 94/94/94
f 89/89/89 97/97/97 93/93/93
f 101/101/101 98/98/98 91/91/91
f 102/102/102 104/104/104 99/99/99
f 109/109/109 105/105/105 103/103/103
f 110/110/110 111/111/111 106/106/106
f 47/47/47 111/111/111 110/110/110
f 48/48/48 59/59/59 113/113/113
f 112/112/112 58/58/58 60/60/60
f 112/112/112 60/60/60 114/114/114
f 115/115/115 114/114/114 60/60/60
f 107/107/107 114/114/114 115/115/115
f 107/107/107 112/112/112 114/114/114
f 107/107/107 115/115/115 116/116/116
f 69/69/69 116/116/116 115/115/115
f 117/117/117 116/116/116 69/69/69
f 117/117/117 118/118/118 116/116/116
f 119/119/119 118/118/118 117/117/117
f 121/121/121 118/118/118 119/119/119
f 121/121/121 95/95/95 118/118/118
f 86/86/86 94/94/94 120/120/120
f 86/86/86 120/120/120 123/123/123
f 126/126/126 124/124/124 121/121/121
f 128/128/128 125/125/125 127/127/127
f 128/128/128 82/82/82 125/125/125
f 78/78/78 82/82/82 128/128/128
f 77/77/77 78/78/78 128/128/128
f 77/77/77 128/128/128 76/76/76
f 76/76/76 128/128/128 127/127/127
f 75/75/75 126/126/126 129/129/129
f 129/129/129 126/126/126 119/119/119
f 126/126/126 121/121/121 119/119/119
f 119/119/119 117/117/117 129/129/129
f 129/129/129 117/117/117 71/71/71
f 71/71/71 117/117/117 69/69/69
f 129/129/129 71/71/71 74/74/74
f 74/74/74 75/75/75 129/129/129
f 83/83/83 84/84/84 122/122/122
f 95/95/95 107/107/107 118/118/118
f 96/96/96 100/100/100 108/108/108
f 118/118/118 107/107/107 116/116/116
f 68/68/68 69/69/69 115/115/115
f 67/67/67 68/68/68 115/115/115
f 67/67/67 115/115/115 60/60/60
f 41/41/41 47/47/47 110/110/110
f 41/41/41 110/110/110 35/35/35
f 37/37/37 109/109/109 103/103/103
f 36/36/36 101/101/101 91/91/91
f 38/38/38 92/92/92 131/131/131
f 130/130/130 89/89/89 80/80/80
f 81/81/81 39/39/39 132/132/132
